<?xml version="1.0" encoding="UTF-8" standalone="no"?>
<svg
   viewBox="0 0 128 128"
   version="1.1"
   id="svg20725"
   sodipodi:docname="html5-original-dark.svg"
   inkscape:version="1.1.1 (3bf5ae0d25, 2021-09-20)"
   xmlns:inkscape="http://www.inkscape.org/namespaces/inkscape"
   xmlns:sodipodi="http://sodipodi.sourceforge.net/DTD/sodipodi-0.dtd"
   xmlns="http://www.w3.org/2000/svg"
   xmlns:svg="http://www.w3.org/2000/svg">
  <defs
     id="defs20729" />
  <sodipodi:namedview
     id="namedview20727"
     pagecolor="#ffffff"
     bordercolor="#666666"
     borderopacity="1.0"
     inkscape:pageshadow="2"
     inkscape:pageopacity="0.0"
     inkscape:pagecheckerboard="0"
     showgrid="false"
     inkscape:zoom="6.3046875"
     inkscape:cx="63.920694"
     inkscape:cy="64"
     inkscape:window-width="1920"
     inkscape:window-height="1016"
     inkscape:window-x="1920"
     inkscape:window-y="27"
     inkscape:window-maximized="1"
     inkscape:current-layer="svg20725" />
  <path
     fill="#E44D26"
     d="M19.037 113.876L9.032 1.661h109.936l-10.016 112.198-45.019 12.48z"
     id="path20717"
     style="fill:#fd714c;fill-opacity:1" />
  <path
     fill="#F16529"
     d="M64 116.8l36.378-10.086 8.559-95.878H64z"
     id="path20719"
     style="fill:#f49069;fill-opacity:1" />
  <path
     fill="#EBEBEB"
     d="M64 52.455H45.788L44.53 38.361H64V24.599H29.489l.33 3.692 3.382 37.927H64zm0 35.743l-.061.017-15.327-4.14-.979-10.975H33.816l1.928 21.609 28.193 7.826.063-.017z"
     id="path20721" />
  <path
     fill="#fff"
     d="M63.952 52.455v13.763h16.947l-1.597 17.849-15.35 4.143v14.319l28.215-7.82.207-2.325 3.234-36.233.335-3.696h-3.708zm0-27.856v13.762h33.244l.276-3.092.628-6.978.329-3.692z"
     id="path20723" />
</svg>
