<?xml version="1.0" encoding="UTF-8" standalone="no"?>
<!-- Created with Inkscape (http://www.inkscape.org/) -->

<svg
   width="57.982796mm"
   height="52.319897mm"
   viewBox="0 0 57.982794 52.319898"
   version="1.1"
   id="svg5"
   inkscape:version="1.1.2 (0a00cf5339, 2022-02-04)"
   sodipodi:docname="work.svg"
   xmlns:inkscape="http://www.inkscape.org/namespaces/inkscape"
   xmlns:sodipodi="http://sodipodi.sourceforge.net/DTD/sodipodi-0.dtd"
   xmlns="http://www.w3.org/2000/svg"
   xmlns:svg="http://www.w3.org/2000/svg">
  <sodipodi:namedview
     id="namedview7"
     pagecolor="#121212"
     bordercolor="#666666"
     borderopacity="1.0"
     inkscape:pageshadow="2"
     inkscape:pageopacity="0"
     inkscape:pagecheckerboard="0"
     inkscape:document-units="mm"
     showgrid="false"
     fit-margin-top="0"
     fit-margin-left="0"
     fit-margin-right="0"
     fit-margin-bottom="0"
     inkscape:zoom="1.5037598"
     inkscape:cx="189.52495"
     inkscape:cy="224.43744"
     inkscape:window-width="1920"
     inkscape:window-height="1016"
     inkscape:window-x="1920"
     inkscape:window-y="27"
     inkscape:window-maximized="1"
     inkscape:current-layer="layer1" />
  <defs
     id="defs2" />
  <g
     inkscape:label="Layer 1"
     inkscape:groupmode="layer"
     id="layer1"
     transform="translate(-121.40678,-13.68208)">
    <g
       id="g1840"
       transform="matrix(0.27496583,0,0,0.27496583,121.86225,12.113838)">
      <path
         style="fill:#f7ec5a;fill-opacity:1;stroke-width:0.264583"
         d="M 21.781648,192.74621 C 14.496076,191.52565 9.4217694,189.45239 5.1671627,182.89526 -0.24400216,174.55566 -1.1515649,165.20884 3.2056779,156.49514 4.9916756,152.92347 82.456503,19.448235 83.586882,17.97655 87.079208,13.429751 90.375034,9.9304801 95.552078,8.3465877 100.79285,6.743196 106.55731,6.5829622 111.70377,8.337434 c 2.47363,0.8432806 6.31535,3.273822 8.27858,4.785166 1.92857,1.484659 4.45464,3.617454 5.7202,5.500807 1.98394,2.95242 78.57916,137.131643 79.30371,138.884813 0.95477,2.31021 1.07399,3.37038 1.52452,6.32288 2.1126,13.8444 -4.3737,24.79659 -17.62246,29.40919 -3.81654,1.32874 0.72479,0.7881 -85.24252,0.75344 -66.467439,-0.0268 -80.089571,-0.9469 -81.884152,-1.24752 z"
         id="path1844"
         sodipodi:nodetypes="csssssssssssc" />
      <path
         style="opacity:1;fill:#272727;fill-opacity:1;stroke-width:0.264583"
         d="M 22.631163,195.81572 C 16.136986,194.84796 9.32049,191.21915 5.4183766,186.65235 2.2626445,182.95907 0.29384268,179.19223 -0.98572009,174.3996 c -0.58917871,-2.20679 -0.67555131,-3.06131 -0.67055451,-6.63411 0.00496,-3.54862 0.097254,-4.44695 0.68515229,-6.66903 0.3736792,-1.4124 1.14316009,-3.55553 1.70995763,-4.7625 C 1.7425615,154.19655 78.514841,20.907945 80.410636,18.011328 c 1.547429,-2.364342 5.234212,-6.000867 7.795466,-7.689198 2.730479,-1.7998804 5.354815,-2.9476214 8.885748,-3.8861403 3.51043,-0.9330685 9.296,-0.9814167 12.82422,-0.107168 6.94829,1.7216996 12.64741,5.5047573 16.60305,11.0210473 1.55672,2.170908 79.63659,137.691131 80.47039,139.669371 1.7917,4.25086 2.6153,9.8253 2.05094,13.88152 -0.94895,6.82034 -3.88818,12.66564 -8.69633,17.29448 -3.6475,3.51146 -7.34595,5.56114 -12.70999,7.04385 l -2.54881,0.70453 -80.56562,0.0346 c -44.311091,0.019 -81.160933,-0.0541 -81.888537,-0.16252 z m 163.990717,-7.7467 c 5.38531,-1.68899 9.05733,-4.41565 11.93283,-8.86072 2.28256,-3.52848 3.32166,-7.10897 3.32774,-11.46663 0.004,-3.07262 -0.56724,-5.87593 -1.70435,-8.35971 C 199.82066,158.60122 181.872,127.35541 160.29219,89.946842 135.09704,46.271095 120.5605,21.328804 119.67108,20.24776 c -3.83122,-4.656656 -9.59757,-7.29469 -15.94513,-7.29469 -7.759288,0 -14.162969,3.66149 -18.196315,10.404272 C 84.807619,24.564378 66.912796,55.555703 45.76336,92.226953 16.368726,143.19465 7.1337808,159.41245 6.5624843,161.06894 c -2.2409699,6.49776 -1.2240637,13.26611 2.8590414,19.02929 3.2385813,4.57116 8.6364463,7.82513 14.1867083,8.5521 0.91782,0.12021 37.447042,0.20304 81.176046,0.18405 l 79.50729,-0.0345 z M 20.052574,181.88608 c -2.252352,-2.05882 -2.6788,-2.62858 -1.749009,-2.33677 2.352825,0.73843 9.352422,3.55524 9.432654,3.79594 0.06848,0.20543 -0.793329,0.29524 -2.832952,0.29524 h -2.931366 z m 4.827548,-2.60469 c -6.184636,-2.3795 -11.423385,-4.44873 -11.641667,-4.59828 -0.282021,-0.19322 0.551738,-0.27642 2.881051,-0.28747 l 3.277925,-0.0156 11.009574,4.21604 c 6.055265,2.31883 11.217933,4.2961 11.472595,4.39393 1.131035,0.43454 0.235106,0.64924 -2.645833,0.63407 l -3.108854,-0.0164 -11.244791,-4.32636 z m 14.438886,-0.009 c -6.246895,-2.39311 -11.479691,-4.47282 -11.628437,-4.62157 -0.184211,-0.18421 0.751469,-0.27045 2.934334,-0.27045 h 3.204782 l 11.20178,4.27508 c 6.160979,2.3513 11.37612,4.4349 11.589205,4.63021 0.326054,0.29887 -0.114025,0.35376 -2.778125,0.34648 l -3.165552,-0.009 -11.357987,-4.35112 z m 14.202258,-0.0701 c -6.293776,-2.41838 -11.443229,-4.49265 -11.443229,-4.60949 0,-0.11684 1.388423,-0.21243 3.085386,-0.21243 h 3.085385 l 11.003677,4.21405 c 6.05202,2.31772 11.212035,4.29499 11.466697,4.39393 1.12804,0.43824 0.237244,0.65093 -2.645833,0.63171 l -3.108854,-0.0207 -11.443229,-4.39706 z m 14.627227,0.0586 c -6.252445,-2.3979 -11.485242,-4.47698 -11.628437,-4.62018 -0.170749,-0.17075 0.843687,-0.26035 2.947516,-0.26035 h 3.207867 l 11.198695,4.26985 c 6.15928,2.34842 11.373035,4.43201 11.58612,4.63021 0.328509,0.30556 -0.09395,0.35883 -2.778125,0.35032 l -3.165552,-0.01 z m 14.212355,-0.0643 c -6.293776,-2.41815 -11.443229,-4.49106 -11.443229,-4.60645 0,-0.11539 1.394421,-0.2098 3.098713,-0.2098 h 3.098712 l 10.99035,4.21347 c 6.044691,2.3174 11.198708,4.29467 11.45337,4.39393 1.127756,0.43955 0.237448,0.65129 -2.645833,0.62926 l -3.108854,-0.0238 -11.443229,-4.39665 z m 14.621872,0.0576 c -6.255393,-2.40012 -11.488189,-4.47861 -11.628437,-4.61885 -0.163608,-0.16361 0.897085,-0.255 2.95955,-0.255 h 3.214549 l 11.522738,4.40434 c 6.33751,2.42239 11.52275,4.50598 11.52275,4.63021 0,0.12422 -1.39899,0.22076 -3.10886,0.21451 l -3.10885,-0.0113 -11.37344,-4.36386 z m 14.45672,0.024 c -6.16232,-2.3727 -11.33558,-4.44537 -11.496144,-4.60593 -0.212849,-0.21285 0.564564,-0.29186 2.869844,-0.2917 l 3.16177,2.3e-4 8.33437,3.1847 c 13.55464,5.17944 14.55209,5.57925 14.55209,5.83292 0,0.13436 -1.38522,0.23152 -3.10886,0.21806 l -3.10885,-0.0243 -11.20422,-4.314 z m 14.37922,-0.0311 c -6.2574,-2.40121 -11.49019,-4.47853 -11.62844,-4.61628 -0.15816,-0.15758 0.94514,-0.25044 2.97568,-0.25044 h 3.22704 l 10.78265,4.12959 c 5.93046,2.27127 11.11007,4.24745 11.51026,4.3915 1.42549,0.51315 0.68364,0.73913 -2.38125,0.72539 l -3.10886,-0.0139 -11.37708,-4.36583 z m 14.45407,0.0238 c -6.16578,-2.37557 -11.33904,-4.44775 -11.49614,-4.60485 -0.20446,-0.20446 0.61507,-0.28563 2.8837,-0.28563 h 3.16934 l 10.97264,4.20724 c 6.03495,2.31398 11.181,4.29125 11.43566,4.39393 1.11483,0.44951 0.24677,0.65748 -2.64584,0.63388 l -3.10885,-0.0254 -11.21051,-4.31921 z m 14.38551,-0.0269 c -6.2574,-2.4006 -11.49019,-4.47697 -11.62844,-4.61415 -0.15749,-0.15629 0.95593,-0.24943 2.9817,-0.24943 h 3.23306 l 10.77663,4.12752 c 5.92715,2.27013 11.10405,4.24631 11.50424,4.39151 1.42325,0.51638 0.68529,0.74116 -2.38125,0.72533 l -3.10886,-0.0161 -11.37708,-4.36473 z m 14.44199,0.0171 c -6.17242,-2.38345 -11.34568,-4.45664 -11.49614,-4.6071 -0.18835,-0.18835 0.71834,-0.27355 2.91105,-0.27355 h 3.18461 l 10.95737,4.19435 c 7.2045,2.7578 10.95737,4.32098 10.95737,4.56407 0,0.28903 -0.57731,0.37909 -2.64583,0.41273 l -2.64584,0.043 z m 10.95801,-1.35775 c -4.36563,-1.66965 -8.05061,-3.14535 -8.18885,-3.27932 -0.15356,-0.14881 1.01202,-0.24358 2.99577,-0.24358 h 3.24714 l 5.82761,2.23086 c 3.20519,1.22697 5.89576,2.299 5.97905,2.38229 0.17077,0.17077 -0.91907,1.4083 -1.52635,1.73317 -0.2589,0.13851 -3.15637,-0.84307 -8.33437,-2.82342 z M 19.720747,169.37017 c -3.035251,-0.73892 -4.894792,-3.46164 -4.894792,-7.1669 0,-3.15391 1.260585,-5.46083 3.543574,-6.48489 2.554292,-1.14575 5.895264,-1.05944 7.732983,0.19979 0.979633,0.67125 2.266934,2.5301 2.154931,3.11168 -0.04867,0.25271 -0.675092,0.52604 -1.723673,0.7521 l -1.647224,0.35512 -0.89435,-0.94829 c -1.173118,-1.24387 -2.410605,-1.30326 -3.671962,-0.17624 -0.860907,0.76922 -0.864071,0.78125 -0.864071,3.28598 0,2.29645 0.05549,2.57299 0.641434,3.1967 0.511232,0.54418 0.891239,0.68277 1.872108,0.68277 1.280594,0 1.928892,-0.44156 2.622079,-1.78593 0.168825,-0.32743 0.519681,-0.59532 0.779679,-0.59532 0.634902,0 2.912729,0.78682 3.08506,1.06566 0.286978,0.46434 -0.770643,2.42228 -1.770948,3.2785 -1.544934,1.32241 -4.465149,1.83782 -6.964828,1.22927 z m 15.201317,-0.11273 c -1.730706,-0.4668 -3.035572,-1.57695 -3.883845,-3.3043 -0.632357,-1.28768 -0.732531,-1.80705 -0.722527,-3.74614 0.0092,-1.79035 0.135866,-2.50789 0.618572,-3.50503 1.240544,-2.56262 3.565589,-3.78911 7.091913,-3.74107 4.346384,0.0592 6.956311,2.78374 6.960801,7.26647 0.0046,4.60907 -2.820297,7.42772 -7.388733,7.37235 -0.810334,-0.01 -2.014614,-0.16385 -2.676181,-0.34228 z m 4.503404,-3.47216 c 0.759322,-0.46928 1.116198,-1.83191 1.022154,-3.90279 -0.09103,-2.00457 -0.137554,-2.14095 -0.990248,-2.90283 -0.782166,-0.69887 -1.041096,-0.78294 -2.058186,-0.6683 -2.076873,0.23409 -2.896745,1.65836 -2.65907,4.6193 0.111551,1.38968 0.270388,1.84272 0.862894,2.46117 0.94167,0.98289 2.593599,1.15293 3.822456,0.39345 z m 27.655693,3.60162 c -2.136944,-0.56527 -3.588858,-2.07611 -3.666339,-3.81512 l -0.03783,-0.84899 1.719791,-0.15891 c 1.506652,-0.13921 1.768978,-0.0946 2.116667,0.35992 1.13235,1.48028 1.57299,1.78336 2.5928,1.78336 1.25689,0 2.046086,-0.72522 1.810528,-1.66377 -0.181428,-0.72286 -0.821201,-1.05998 -3.138562,-1.65382 -3.295713,-0.84456 -4.704349,-2.15521 -4.704349,-4.3771 0,-1.52029 0.807085,-2.71968 2.325081,-3.45525 1.703568,-0.82549 5.172398,-0.84843 6.959129,-0.046 1.803278,0.80985 3.076027,3.19068 1.938941,3.62702 -0.230183,0.0883 -1.103032,0.1606 -1.939666,0.1606 -1.343856,0 -1.561621,-0.0756 -1.868376,-0.6488 -0.651936,-1.21815 -2.917524,-1.40603 -3.350448,-0.27784 -0.267192,0.69629 0.392195,1.12897 2.401906,1.57609 4.000135,0.88994 5.704265,2.30903 5.704265,4.75013 0,1.74378 -0.795819,3.15552 -2.26378,4.0158 -1.006324,0.58975 -1.587656,0.72153 -3.506173,0.79481 -1.264912,0.0483 -2.657025,-0.007 -3.093588,-0.12212 z m 44.731589,-0.0666 c -1.39152,-0.32616 -2.67055,-1.34253 -3.39103,-2.69465 -0.55328,-1.03834 -0.59113,-1.43854 -0.59287,-6.26853 l -0.002,-5.15937 h 2.11666 2.11667 l 0.13229,4.98495 c 0.12855,4.8438 0.14998,4.99926 0.75692,5.4901 0.36824,0.29781 1.03496,0.50515 1.62433,0.50515 0.58937,0 1.25609,-0.20734 1.62433,-0.50515 0.60694,-0.49084 0.62837,-0.6463 0.75692,-5.4901 l 0.13229,-4.98495 1.80975,-0.0788 c 2.70216,-0.11762 2.62087,-0.29553 2.50782,5.48885 -0.0871,4.45423 -0.15028,5.01136 -0.68296,6.01783 -0.70137,1.32521 -1.92429,2.30493 -3.37003,2.69985 -1.25062,0.34161 -4.07092,0.33897 -5.53924,-0.005 z m 16.91633,0.0498 c -1.82144,-0.44342 -3.30344,-1.64337 -4.26928,-3.45676 -0.7646,-1.43555 -0.70912,-6.07869 0.0905,-7.57349 1.24728,-2.33169 3.18252,-3.34345 6.42774,-3.36047 1.79315,-0.009 2.46854,0.10221 3.33235,0.5507 1.73633,0.90152 3.4792,3.2005 2.8455,3.75344 -0.1236,0.10785 -0.90928,0.34251 -1.74597,0.52149 l -1.52125,0.3254 -0.89124,-0.94499 c -0.99541,-1.05545 -2.0249,-1.22938 -3.31818,-0.5606 -1.17832,0.60933 -1.7361,2.5952 -1.37339,4.88967 0.29926,1.89314 1.07209,2.66343 2.67218,2.66343 1.31702,0 2.13692,-0.58549 2.50096,-1.78593 0.0993,-0.32743 0.38903,-0.59532 0.64385,-0.59532 0.70622,0 3.1625,0.77521 3.33363,1.05211 0.26982,0.43656 -0.96299,2.64717 -1.91295,3.43021 -1.45117,1.19617 -4.4262,1.67253 -6.81444,1.09111 z m 37.57083,0.0151 c -2.08491,-0.54723 -4.01893,-2.32967 -4.58773,-4.22816 -0.44232,-1.47633 -0.38703,-4.89014 0.098,-6.05098 1.17299,-2.80737 3.38868,-4.14354 6.87098,-4.14354 3.68817,0 6.22835,1.69838 7.04112,4.70774 0.4098,1.5173 0.17438,5.10002 -0.41022,6.24308 -1.24098,2.42648 -3.05457,3.49814 -6.10174,3.60557 -1.16416,0.041 -2.47385,-0.0191 -2.91041,-0.13371 z m 4.38579,-3.88698 c 0.63921,-0.57848 1.09708,-2.84764 0.8744,-4.33338 -0.23343,-1.55738 -1.51115,-2.92443 -2.73333,-2.92443 -2.08655,0 -3.05673,1.35971 -3.05495,4.28153 7.9e-4,1.37784 0.12308,1.9325 0.55395,2.51354 1.01363,1.36691 3.11445,1.58987 4.35993,0.46273 z m -123.192203,3.53109 c -0.07323,-0.19083 -0.101269,-3.381 -0.06232,-7.08927 l 0.07082,-6.74233 1.91036,-0.0776 1.91036,-0.0776 1.132348,1.54218 c 0.622792,0.84819 1.72766,2.45914 2.455264,3.57989 0.727605,1.12074 1.46829,2.03925 1.645965,2.04113 0.234593,0.002 0.343265,-0.95654 0.396875,-3.50231 l 0.07383,-3.50573 h 1.852083 1.852084 l 0.07049,7.08881 0.07049,7.08881 -2.043525,-0.0773 -2.043522,-0.0774 -1.668711,-2.38125 c -0.91779,-1.30968 -2.053987,-2.91703 -2.524882,-3.57187 l -0.85617,-1.19063 -0.132292,3.57188 -0.132292,3.57187 -1.922055,0.0778 c -1.399137,0.0566 -1.958276,-0.0166 -2.055193,-0.26914 z m 34.397991,-0.007 c -0.06711,-0.18191 -0.152675,-2.53339 -0.190135,-5.22553 l -0.06811,-4.89479 -1.5875,-0.0681 c -2.839953,-0.12184 -2.814497,-0.10324 -2.724393,-1.99058 l 0.07856,-1.64548 6.317024,-0.071 c 4.437801,-0.0499 6.425224,0.0188 6.680729,0.23084 0.427271,0.3546 0.483331,2.16498 0.08981,2.90028 -0.233238,0.43581 -0.567058,0.51177 -2.248958,0.51177 h -1.975067 v 4.87315 c 0,2.68024 -0.07227,5.06149 -0.160599,5.29167 -0.12649,0.32963 -0.577797,0.41851 -2.12497,0.41851 -1.330028,0 -2.003776,-0.1068 -2.086395,-0.33072 z m 10.845577,0.007 c -0.07313,-0.19057 -0.101089,-3.38053 -0.06214,-7.08881 l 0.07082,-6.74231 4.894792,10e-4 c 4.217923,0.001 5.030373,0.0685 5.875283,0.48762 2.65084,1.31509 2.59462,5.54963 -0.0921,6.93899 l -0.78969,0.40837 0.93619,1.03625 c 0.87788,0.97158 2.80157,4.41278 2.80157,5.01147 0,0.16353 -0.87652,0.27118 -2.20795,0.27118 -2.56317,0 -2.458,0.0761 -4.12588,-2.98603 -1.118743,-2.05398 -2.19987,-3.13818 -2.665238,-2.67281 -0.13236,0.13236 -0.275074,1.42998 -0.317142,2.8836 l -0.07649,2.64295 -2.054526,0.0773 c -1.506559,0.0567 -2.089989,-0.0151 -2.187485,-0.26914 z m 7.392395,-8.39781 c 0.3986,-0.15155 0.74424,-0.54586 0.85086,-0.97068 0.27419,-1.09246 -0.66325,-1.7315 -2.392079,-1.63065 l -1.344581,0.0784 -0.08378,1.02001 c -0.04608,0.56101 -0.02006,1.18609 0.05784,1.38907 0.165741,0.43191 1.897087,0.49959 2.91173,0.11382 z m 43.20595,8.55565 c -0.1026,-0.10259 -0.18654,-2.48841 -0.18654,-5.30181 v -5.11528 h -1.93146 c -1.14947,0 -2.06001,-0.12854 -2.24896,-0.3175 -0.43991,-0.43991 -0.40587,-2.71936 0.0462,-3.09455 0.25551,-0.21206 2.24293,-0.28073 6.68073,-0.23084 l 6.31703,0.071 0.0786,1.64548 c 0.0901,1.88734 0.11556,1.86874 -2.7244,1.99058 l -1.5875,0.0681 -0.13229,5.15938 -0.13229,5.15937 -1.99627,0.0763 c -1.09795,0.042 -2.08021,-0.008 -2.18281,-0.11024 z m 11.04957,-0.15784 c -0.0731,-0.19057 -0.10109,-3.38053 -0.0621,-7.08881 l 0.0708,-6.74231 h 2.11666 2.11667 v 7.01145 7.01146 l -2.05453,0.0773 c -1.50655,0.0567 -2.08998,-0.0151 -2.18748,-0.26914 z m 24.14035,0.15818 c -0.34423,-0.34423 -0.22019,-13.4533 0.13062,-13.8041 0.34442,-0.34443 3.33305,-0.43471 3.80735,-0.11501 0.15861,0.10691 1.3282,1.71243 2.5991,3.56782 1.27089,1.85539 2.41758,3.37344 2.5482,3.37344 0.13062,0 0.27071,-1.57758 0.31131,-3.50573 l 0.0738,-3.50572 h 1.98437 1.98438 v 7.01145 7.01146 l -2.03381,0.077 -2.03382,0.077 -2.41296,-3.51656 c -1.32714,-1.9341 -2.49551,-3.51655 -2.5964,-3.51655 -0.10089,0 -0.24296,1.54781 -0.31572,3.43958 l -0.13229,3.43958 -1.86364,0.0766 c -1.02501,0.0422 -1.94774,-0.007 -2.05052,-0.11024 z M 43.970636,150.70948 c -2.815264,-0.6811 -4.963707,-2.94329 -5.566372,-5.86108 -0.216035,-1.04594 -0.295495,-3.68419 -0.242126,-8.03916 l 0.07944,-6.48229 h 3.042708 3.042709 l 0.132291,6.87917 c 0.143706,7.47263 0.18958,7.70912 1.670532,8.61213 1.54346,0.94111 3.843189,0.47902 4.823825,-0.96926 0.474503,-0.70079 0.52416,-1.33652 0.602797,-7.71725 l 0.0857,-6.95353 3.089304,0.0744 3.089304,0.0744 0.07922,6.21771 c 0.109691,8.60989 -0.242959,10.16691 -2.829393,12.49233 -1.726925,1.55266 -3.51065,2.06761 -7.056763,2.03725 -1.445662,-0.0124 -3.265087,-0.17652 -4.043169,-0.36476 z m 22.573223,-0.19999 c -0.0719,-0.18737 -0.09948,-4.80509 -0.0613,-10.2616 l 0.06943,-9.92094 h 3.016136 3.016136 l 3.498548,5.14813 c 1.924201,2.83147 3.630252,5.19202 3.791222,5.24568 0.205714,0.0686 0.314013,-1.46111 0.364485,-5.14813 l 0.0718,-5.24568 h 2.910417 2.910416 v 10.18646 10.18646 l -2.953086,0.0746 -2.953088,0.0746 -3.54349,-5.21668 c -1.948918,-2.86917 -3.683342,-5.26329 -3.854273,-5.32027 -0.229449,-0.0765 -0.329576,1.26921 -0.38259,5.14209 l -0.0718,5.24568 -2.849121,0.0752 c -2.135304,0.0563 -2.881873,-0.0102 -2.979848,-0.26553 z m 28.627232,0.14628 c -0.09701,-0.097 -0.176389,-4.74975 -0.176389,-10.33942 v -10.16302 l 6.416148,0.0874 c 6.35946,0.0867 6.42783,0.0936 7.73906,0.79079 1.74641,0.92852 2.85137,2.1223 3.75599,4.0579 0.70932,1.51773 0.74193,1.76194 0.74193,5.55625 0,3.79905 -0.0305,4.02654 -0.71295,5.3201 -1.43714,2.72399 -3.20377,4.0396 -6.14867,4.57887 -1.69256,0.30994 -11.324148,0.40207 -11.615119,0.1111 z m 10.291629,-4.97303 c 1.36396,-0.56989 1.95461,-2.04786 1.96011,-4.90475 0.005,-2.70619 -0.30293,-3.94223 -1.20862,-4.84791 -0.75102,-0.75103 -3.16201,-1.39139 -4.22969,-1.12342 l -0.63982,0.16058 v 5.37482 c 0,2.95615 0.0794,5.4542 0.17639,5.55121 0.32428,0.32429 3.00422,0.18115 3.94163,-0.21053 z m 16.1523,4.73453 c -0.24279,-0.63271 -0.1873,-19.5085 0.0585,-19.89572 0.1654,-0.26057 2.05161,-0.31909 8.52876,-0.26458 l 8.31639,0.07 0.0773,2.05052 0.0773,2.05052 -4.97207,0.004 c -2.73463,0.002 -5.12776,0.1028 -5.31805,0.22348 -0.23345,0.14806 -0.3195,0.6846 -0.26458,1.6496 l 0.0814,1.43017 4.7625,0.13229 4.7625,0.13229 v 1.98437 1.98438 l -4.82865,0.0721 -4.82864,0.0721 v 1.97293 1.97292 l 5.35781,0.0716 5.35781,0.0716 v 2.24896 2.24896 l -8.50311,0.0698 c -7.58142,0.0622 -8.52067,0.024 -8.66511,-0.35237 z m 25.36206,0.0919 c -0.0718,-0.18721 -0.0994,-4.8048 -0.0612,-10.26131 l 0.0694,-9.92094 h 7.27605 c 6.60182,0 7.36185,0.0459 8.20208,0.49493 2.25219,1.20369 3.00523,2.60934 2.86677,5.35122 -0.0819,1.62168 -0.22227,2.1036 -0.88912,3.05241 -0.4641,0.66034 -1.31019,1.39343 -2.0441,1.77111 l -1.25224,0.64443 1.13225,0.99664 c 0.78672,0.6925 1.67732,2.01687 2.91843,4.33985 0.9824,1.83876 1.71507,3.45828 1.62815,3.59891 -0.088,0.14243 -1.61916,0.25571 -3.45623,0.25571 h -3.29819 l -0.66812,-1.12448 c -0.36746,-0.61846 -1.33853,-2.35293 -2.15792,-3.85437 -1.49344,-2.73653 -2.40189,-3.63763 -3.46255,-3.4345 -0.38748,0.0742 -0.46242,0.61699 -0.57755,4.18316 l -0.13229,4.0979 -2.98152,0.0749 c -2.24173,0.0563 -3.01393,-0.01 -3.11214,-0.26553 z m 11.54102,-12.8694 c 0.6592,-0.81407 0.64423,-2.01501 -0.0335,-2.69279 -0.47411,-0.47411 -0.81803,-0.5301 -2.84427,-0.46302 l -2.30496,0.0763 -0.0804,1.55787 c -0.12192,2.36121 -0.13741,2.34726 2.48716,2.23948 2.00641,-0.0824 2.32906,-0.16583 2.77605,-0.71784 z M 88.777605,112.73315 c -0.129688,-0.20984 1.078076,-1.60432 3.433299,-3.96406 3.124176,-3.13016 3.595423,-3.71009 3.362595,-4.13811 -0.44169,-0.81199 -6.286272,-6.450902 -6.686185,-6.450902 -0.202295,0 -1.935858,1.56482 -3.852359,3.477382 -4.025577,4.01729 -4.327753,4.11878 -4.327753,1.45358 0,-6.13919 5.009203,-10.901854 10.938994,-10.400604 l 1.915356,0.161907 4.288451,-4.294365 c 2.358647,-2.361901 4.288447,-4.417401 4.288447,-4.56778 0,-0.295725 -13.024565,-13.346787 -13.319689,-13.346787 -0.09826,0 -0.890963,0.654844 -1.761559,1.455208 -1.407345,1.293813 -1.709338,1.455209 -2.722909,1.455209 -1.784871,0 -2.414241,1.1078 -1.113549,1.960044 0.363802,0.238373 0.661458,0.6415 0.661458,0.895842 0,0.691901 -4.571717,5.148106 -5.043244,4.91582 -0.209394,-0.10315 -2.222862,-2.073417 -4.474379,-4.378372 l -4.093665,-4.190823 2.368357,-2.379382 c 1.302597,-1.308658 2.474185,-2.379379 2.603529,-2.379379 0.129342,0 0.649618,0.363889 1.156166,0.808646 0.842031,0.739312 0.969793,0.776229 1.490136,0.430572 0.440306,-0.292486 0.574288,-0.658162 0.591875,-1.615376 0.02029,-1.103985 0.155702,-1.372307 1.256771,-2.490185 0.803336,-0.815599 1.234038,-1.482876 1.234038,-1.911868 0,-0.912326 3.581238,-4.482206 4.496466,-4.482206 0.433475,0 1.154308,-0.501457 2.180333,-1.516777 1.392473,-1.377942 1.633305,-1.514139 2.631128,-1.487974 0.903182,0.02368 1.373867,-0.174019 2.648767,-1.112547 2.930554,-2.157351 5.379104,-2.669201 8.34818,-1.74512 2.71274,0.844299 8.00554,4.73025 8.00554,5.877629 0,0.981795 -0.8776,1.088416 -2.82105,0.342741 -3.36022,-1.289267 -6.629397,-0.894717 -9.269071,1.118658 -0.709559,0.541211 -0.874461,0.850101 -0.874461,1.638036 0,0.826987 -0.22466,1.198081 -1.514316,2.501336 l -1.514316,1.530284 6.807534,6.807534 6.80753,6.80753 4.86583,-4.860499 4.86583,-4.860499 0.10018,-2.940478 c 0.0936,-2.746375 0.15959,-3.050876 1.00031,-4.612892 1.0543,-1.958808 2.7389,-3.551012 4.77517,-4.513246 1.16209,-0.549143 1.94818,-0.706713 3.9026,-0.782267 2.12756,-0.08225 2.4474,-0.03807 2.4474,0.338026 0,0.23795 -1.57057,2.040689 -3.49015,4.006085 l -3.49014,3.573447 3.42018,3.427788 c 1.8811,1.885283 3.53942,3.427788 3.68516,3.427788 0.14573,0 1.89107,-1.62298 3.87851,-3.606622 3.50427,-3.497567 3.62337,-3.588266 3.93849,-2.999457 0.458,0.855789 0.18766,3.751323 -0.52501,5.623041 -0.76946,2.02089 -2.91589,4.338344 -4.94907,5.343422 -1.33015,0.65754 -1.95037,0.782926 -4.51572,0.912902 l -2.97379,0.150673 -3.97152,3.965442 c -2.18434,2.180993 -3.97153,4.144905 -3.97153,4.364247 0,0.219342 4.16062,4.566613 9.24581,9.660599 6.27333,6.284179 9.30382,9.501949 9.42625,10.008769 0.16523,0.68399 -0.0633,0.99076 -2.7106,3.63802 -2.08401,2.08401 -3.06961,2.89105 -3.53074,2.89105 -0.4879,0 -2.87186,-2.22898 -10.04579,-9.39271 -5.17334,-5.16599 -9.58415,-9.392709 -9.80178,-9.392709 -0.21764,0 -1.97282,1.580367 -3.9004,3.511928 l -3.5047,3.511929 -0.0677,2.771922 c -0.0584,2.39067 -0.16896,2.99028 -0.8042,4.35943 -0.933842,2.0127 -2.776699,3.91441 -4.811403,4.96504 -1.347619,0.69584 -1.952149,0.83697 -4.000701,0.93396 -1.723271,0.0816 -2.470399,0.0217 -2.613271,-0.20947 z"
         id="path1842" />
    </g>
    <g
       id="g872"
       transform="translate(94.03941,-9.2651415)" />
  </g>
</svg>
