<?xml version="1.0" encoding="UTF-8" standalone="no"?>
<svg
   viewBox="0 0 256 256"
   version="1.1"
   id="svg894"
   sodipodi:docname="sdl-original-dark.svg"
   xmlns:inkscape="http://www.inkscape.org/namespaces/inkscape"
   xmlns:sodipodi="http://sodipodi.sourceforge.net/DTD/sodipodi-0.dtd"
   xmlns="http://www.w3.org/2000/svg"
   xmlns:svg="http://www.w3.org/2000/svg">
  <sodipodi:namedview
     id="namedview896"
     pagecolor="#ffffff"
     bordercolor="#666666"
     borderopacity="1.0"
     inkscape:pageshadow="2"
     inkscape:pageopacity="0.0"
     inkscape:pagecheckerboard="0"
     showgrid="false" />
  <defs
     id="defs882">
    <radialGradient
       id="vlpa"
       cx="204.89999"
       cy="-244"
       r="25.719999"
       gradientTransform="matrix(-1.4668503,-2.8625787,4.8605899,-2.491009,2448.6521,398.26638)"
       gradientUnits="userSpaceOnUse">
      <stop
         style="stop-color:#656f71"
         offset="0"
         id="stop877" />
      <stop
         style="stop-color:#d3d4cf"
         offset="1"
         id="stop879" />
    </radialGradient>
  </defs>
  <g
     transform="translate(-727.5,-270.6)"
     id="g892">
    <path
       d="m 846.84297,462.83139 c -29.40992,-1.00713 -57.38347,-7.66039 -79.13637,-18.81443 -2.04832,-1.0512 -6.51897,-3.53877 -6.51897,-3.629 0,-0.0299 0.70948,0.30419 1.57686,0.74695 10.64739,5.43659 24.02875,10.082 37.53858,13.03096 21.42684,4.68017 44.8937,5.92577 67.89554,3.59779 21.70445,-2.19619 41.97946,-7.52508 59.29154,-15.58444 15.56361,-7.24407 28.02566,-16.51423 36.32434,-27.00215 12.74651,-16.13258 14.44989,-34.83241 4.69404,-51.41603 -6.31765,-10.74816 -16.86107,-20.21604 -31.33536,-28.13657 -1.38602,-0.75885 -2.47329,-1.37947 -2.41672,-1.37947 0.18966,0 6.31428,2.95242 8.22929,3.96895 9.35003,4.95432 16.78484,10.22777 23.27253,16.50734 8.14967,7.88928 13.26693,16.01451 15.77188,25.03496 2.3147,8.3438 1.88272,17.59656 -1.20527,25.80171 -4.15288,11.03955 -12.65283,21.19783 -25.08359,29.9927 -20.19173,14.28336 -49.09163,23.74441 -81.14858,26.55462 -8.69777,0.76283 -18.91161,1.03038 -27.75149,0.72748 z"
       style="fill:url(#vlpa);stroke-width:0.346943"
       id="path884" />
    <path
       d="m 920.39362,425.0152 h -0.15674 c -0.0722,-0.0256 -0.1767,-0.0428 -0.31367,-0.0536 -0.1371,-0.0126 -0.28827,-0.0171 -0.45384,-0.0171 -0.19839,0 -0.40626,0.0257 -0.6242,0.0819 -0.2177,0.0544 -0.42944,0.11973 -0.63482,0.19541 v 3.86141 h -1.89155 v -5.76616 h 1.89155 v 0.82645 c 0.0861,-0.0751 0.2061,-0.17026 0.35941,-0.28468 0.15297,-0.11464 0.29286,-0.20625 0.41872,-0.27485 0.13701,-0.0786 0.29641,-0.14646 0.47844,-0.20263 0.18189,-0.0562 0.35394,-0.0846 0.51628,-0.0846 0.0611,4e-5 0.1297,0.002 0.20524,0.005 0.0757,0.004 0.14436,0.008 0.20528,0.017 z m -6.87986,4.21881 c -1.14557,0 -2.02401,-0.2602 -2.63463,-0.78031 -0.61059,-0.52013 -0.91626,-1.26107 -0.91626,-2.22285 0,-0.94127 0.2849,-1.69237 0.85423,-2.25374 0.56928,-0.56133 1.36546,-0.84195 2.38894,-0.84195 0.92944,0 1.62862,0.2377 2.09691,0.71359 0.46838,0.4757 0.70251,1.15673 0.70251,2.04319 v 0.64663 h -4.14577 c 0.0171,0.2671 0.0773,0.49023 0.17847,0.66994 0.10067,0.17974 0.23416,0.32239 0.3999,0.42846 0.16205,0.106 0.35154,0.18235 0.56763,0.22859 0.21606,0.0459 0.45208,0.0688 0.70778,0.0688 0.21999,0 0.43608,-0.0214 0.6484,-0.0688 0.21269,-0.0456 0.40694,-0.1067 0.58353,-0.18231 0.15516,-0.0648 0.29817,-0.13527 0.42958,-0.21045 0.13127,-0.0748 0.23848,-0.14215 0.32138,-0.20001 h 0.20004 v 1.48353 c -0.15512,0.0579 -0.29632,0.11176 -0.42424,0.1615 -0.12795,0.0494 -0.30379,0.0999 -0.52704,0.15171 -0.20527,0.0511 -0.41695,0.0914 -0.63487,0.12065 -0.21773,0.0299 -0.48366,0.0433 -0.79731,0.0433 z m 0.627,-3.77816 c -0.0123,-0.37996 -0.10371,-0.66924 -0.27826,-0.86773 -0.17461,-0.19833 -0.44234,-0.29774 -0.80255,-0.29774 -0.36773,5e-5 -0.65492,0.10448 -0.86205,0.31335 -0.20705,0.20872 -0.32158,0.49267 -0.34316,0.85208 z m -3.78162,-2.14064 -3.06454,7.87893 h -2.03194 l 0.91864,-2.2537 -2.22659,-5.62735 h 1.98888 l 1.27541,3.61507 1.19452,-3.61507 z m -8.28146,4.26038 v -1.20106 c -0.32052,0.0299 -0.57999,0.0571 -0.77814,0.0794 -0.1983,0.0214 -0.39271,0.0656 -0.58392,0.13092 -0.16579,0.0544 -0.29466,0.13777 -0.38616,0.24889 -0.0918,0.11149 -0.13767,0.25932 -0.13767,0.44407 0,0.27052 0.0759,0.45593 0.22985,0.5569 0.15295,0.10068 0.37955,0.15113 0.67818,0.15113 0.1659,0 0.33492,-0.0341 0.50792,-0.10747 0.17293,-0.0713 0.32974,-0.17287 0.47008,-0.30297 z m 0,0.8934 c -0.12966,0.10276 -0.24574,0.19481 -0.3486,0.27732 -0.10292,0.0819 -0.2407,0.16431 -0.41355,0.24634 -0.16942,0.0786 -0.33402,0.13884 -0.49477,0.17974 -0.16027,0.0427 -0.38439,0.0614 -0.67306,0.0614 -0.53673,0 -0.98249,-0.17112 -1.33774,-0.51355 -0.35458,-0.3422 -0.53224,-0.77331 -0.53224,-1.29364 0,-0.42784 0.0897,-0.77336 0.27015,-1.03707 0.1802,-0.26357 0.43952,-0.47213 0.77814,-0.62616 0.34213,-0.15724 0.75111,-0.26699 1.2268,-0.32844 0.47556,-0.0614 0.98729,-0.10972 1.53483,-0.1438 v -0.0299 c 0,-0.31841 -0.12367,-0.5381 -0.37023,-0.65947 -0.24672,-0.12143 -0.61716,-0.18246 -1.11052,-0.18246 -0.22338,0 -0.48469,0.0385 -0.78376,0.11544 -0.29895,0.0769 -0.5908,0.17541 -0.87569,0.29501 h -0.16195 v -1.3912 c 0.18742,-0.0511 0.49017,-0.11176 0.90788,-0.18229 0.41774,-0.0697 0.83955,-0.10496 1.26459,-0.10496 1.04504,0 1.80617,0.16502 2.28357,0.49536 0.47741,0.33009 0.71609,0.83408 0.71609,1.51198 v 3.92033 h -1.88083 z m -3.53182,0.61087 h -5.37053 v -7.64293 h 2.02127 v 6.1859 h 3.35076 z m -10.6787,-1.50427 v -1.20106 c -0.32053,0.0299 -0.58005,0.0571 -0.77813,0.0794 -0.19839,0.0214 -0.39272,0.0656 -0.58362,0.13092 -0.16585,0.0544 -0.29461,0.13777 -0.38645,0.24889 -0.0918,0.11149 -0.13778,0.25932 -0.13778,0.44407 0,0.27052 0.0765,0.45593 0.22986,0.5569 0.15296,0.10068 0.37947,0.15113 0.67818,0.15113 0.16603,0 0.33536,-0.0341 0.50798,-0.10747 0.17283,-0.0713 0.32967,-0.17287 0.47007,-0.30297 z m 0,0.8934 c -0.12962,0.10276 -0.24583,0.19481 -0.34865,0.27732 -0.10297,0.0819 -0.24068,0.16431 -0.41349,0.24634 -0.1694,0.0786 -0.33402,0.13884 -0.49443,0.17974 -0.16032,0.0427 -0.38446,0.0614 -0.67305,0.0614 -0.53672,0 -0.9825,-0.17112 -1.33747,-0.51355 -0.35486,-0.3422 -0.53216,-0.77331 -0.53216,-1.29364 0,-0.42784 0.0896,-0.77336 0.26993,-1.03707 0.18033,-0.26357 0.43965,-0.47213 0.77828,-0.62616 0.34213,-0.15724 0.75105,-0.26699 1.22676,-0.32844 0.47559,-0.0614 0.98732,-0.10972 1.53487,-0.1438 v -0.0299 c 0,-0.31841 -0.12367,-0.5381 -0.37023,-0.65947 -0.24666,-0.12143 -0.61688,-0.18246 -1.11051,-0.18246 -0.22342,0 -0.4847,0.0385 -0.78377,0.11544 -0.29896,0.0769 -0.59086,0.17541 -0.8757,0.29501 h -0.16198 v -1.3912 c 0.18744,-0.0511 0.48987,-0.11176 0.90785,-0.18229 0.41781,-0.0697 0.83962,-0.10496 1.26466,-0.10496 1.04489,0 1.80611,0.16502 2.28352,0.49536 0.47731,0.33009 0.71609,0.83408 0.71609,1.51198 v 3.92033 h -1.88079 z m -4.13196,0.61087 h -1.89155 v -5.76608 h 1.89155 z m 0.0536,-6.58479 h -1.99971 v -1.40157 h 1.99971 z m -2.72549,6.58479 h -1.89153 v -0.60049 c -0.12265,0.0955 -0.26235,0.19839 -0.41878,0.30807 -0.15679,0.10928 -0.29464,0.19189 -0.4136,0.24632 -0.15109,0.0687 -0.30068,0.11959 -0.4485,0.1542 -0.14781,0.0342 -0.32447,0.0511 -0.52978,0.0511 -0.69178,0 -1.23956,-0.27223 -1.64306,-0.81633 -0.40354,-0.54397 -0.6055,-1.27159 -0.6055,-2.18187 0,-0.50306 0.0687,-0.9395 0.20524,-1.30909 0.13696,-0.36943 0.32632,-0.69144 0.56763,-0.96507 0.21997,-0.24981 0.4864,-0.44759 0.80009,-0.59292 0.31327,-0.14562 0.64494,-0.21829 0.99424,-0.21829 0.31721,0 0.57736,0.0299 0.78103,0.0949 0.20354,0.0631 0.44053,0.16154 0.71085,0.29506 v -2.45394 h 1.89154 z m -1.89153,-1.59135 V 424.66 c -0.0935,-0.0442 -0.2161,-0.0812 -0.36778,-0.11025 -0.15127,-0.0299 -0.28085,-0.0432 -0.38929,-0.0432 -0.45413,0 -0.79515,0.15083 -1.02415,0.45159 -0.22904,0.3012 -0.34309,0.72205 -0.34309,1.26295 0,0.56825 0.0908,0.97866 0.27308,1.23198 0.18187,0.25318 0.47638,0.3799 0.88372,0.3799 0.16587,0 0.33316,-0.0299 0.50273,-0.0922 0.16923,-0.0614 0.32396,-0.14566 0.46485,-0.25149 z m -6.4218,1.7455 c -1.14597,0 -2.02401,-0.2602 -2.63463,-0.78031 -0.61066,-0.52006 -0.91599,-1.26107 -0.91599,-2.22285 0,-0.94127 0.28482,-1.69237 0.8538,-2.25374 0.56938,-0.56133 1.36563,-0.84195 2.3891,-0.84195 0.92937,0 1.62844,0.2377 2.09686,0.71359 0.46835,0.4757 0.70248,1.15673 0.70248,2.04319 v 0.64663 h -4.14587 c 0.0175,0.2671 0.0774,0.49023 0.17851,0.66994 0.10067,0.17974 0.23419,0.32239 0.40007,0.42846 0.16194,0.106 0.35113,0.18235 0.56757,0.22859 0.21601,0.0459 0.45207,0.0688 0.70811,0.0688 0.21986,0 0.43609,-0.0214 0.64842,-0.0688 0.21259,-0.0456 0.40699,-0.1067 0.58358,-0.18231 0.15516,-0.0648 0.29807,-0.13527 0.42952,-0.21045 0.13123,-0.0748 0.23892,-0.14215 0.32142,-0.20001 h 0.20009 v 1.48353 c -0.15513,0.0579 -0.29644,0.11176 -0.42435,0.1615 -0.12796,0.0494 -0.30382,0.0999 -0.52693,0.15171 -0.20527,0.0511 -0.41713,0.0914 -0.63493,0.12065 -0.21782,0.0299 -0.48367,0.0433 -0.79725,0.0433 z m 0.62688,-3.77816 c -0.0127,-0.37996 -0.10368,-0.66924 -0.27833,-0.86773 -0.17442,-0.19833 -0.44233,-0.29774 -0.80244,-0.29774 -0.36735,5e-5 -0.65491,0.10448 -0.86215,0.31335 -0.20695,0.20872 -0.32137,0.49267 -0.343,0.85208 z m -6.37673,3.62552 v -2.88 c 0,-0.28386 -0.004,-0.52347 -0.0175,-0.71882 -0.0127,-0.19492 -0.0426,-0.35428 -0.0968,-0.47741 -0.0537,-0.12312 -0.13787,-0.21301 -0.25147,-0.2696 -0.11371,-0.0562 -0.2731,-0.0846 -0.4785,-0.0846 -0.14427,0 -0.28643,0.0299 -0.42698,0.0895 -0.14042,0.0597 -0.29383,0.14482 -0.45936,0.25409 v 4.08694 h -1.90265 v -2.88 c 0,-0.28086 -0.004,-0.51931 -0.0175,-0.7161 -0.0127,-0.19662 -0.0453,-0.35701 -0.0993,-0.4798 -0.0537,-0.12308 -0.13783,-0.213 -0.25146,-0.26959 -0.11369,-0.0565 -0.27101,-0.0846 -0.47296,-0.0846 -0.15517,0 -0.30636,0.0341 -0.45373,0.10292 -0.14785,0.068 -0.29173,0.14903 -0.43227,0.24105 v 4.08694 h -1.8915 v -5.76616 h 1.8915 v 0.63661 c 0.30982,-0.24978 0.60155,-0.44468 0.87563,-0.58527 0.27395,-0.1403 0.58186,-0.21044 0.92421,-0.21044 0.3713,0 0.69702,0.0837 0.97838,0.25152 0.28086,0.16767 0.49546,0.41736 0.64318,0.74933 0.36401,-0.32182 0.70709,-0.56894 1.02979,-0.7417 0.32233,-0.17281 0.64943,-0.25932 0.98078,-0.25932 0.28082,0 0.53329,0.0428 0.75671,0.1284 0.22338,0.0854 0.41248,0.21392 0.56754,0.38512 0.16935,0.18493 0.29642,0.40491 0.38097,0.65958 0.0846,0.25494 0.12696,0.58772 0.12696,0.99848 v 3.75388 z m -8.86765,0.11275 c -0.77092,0 -1.33223,-0.15044 -1.68339,-0.45174 -0.35145,-0.30111 -0.52703,-0.79413 -0.52703,-1.47824 v -2.69506 h -0.72438 v -1.25246 h 0.72438 v -1.64792 h 1.89153 v 1.64792 h 1.82152 v 1.25246 h -1.82152 v 2.04309 c 0,0.20181 0,0.37823 0.004,0.52874 0.004,0.15092 0.0302,0.28564 0.0862,0.40563 0.0502,0.11962 0.13951,0.21472 0.26743,0.28472 0.12792,0.07 0.31459,0.10552 0.55926,0.10552 0.10067,0 0.23333,-0.0214 0.39693,-0.0614 0.16374,-0.0427 0.27832,-0.0786 0.34308,-0.11275 h 0.16197 v 1.26812 c -0.20521,0.0511 -0.42317,0.0913 -0.65389,0.12055 -0.23071,0.0298 -0.51348,0.0434 -0.84865,0.0434 z m -4.5136,0.0427 c -0.50069,0 -0.95937,-0.0596 -1.37531,-0.17974 -0.41594,-0.11966 -0.77756,-0.30469 -1.08356,-0.55442 -0.30242,-0.24981 -0.53879,-0.56377 -0.70802,-0.94201 -0.16944,-0.37815 -0.25409,-0.82391 -0.25409,-1.33736 0,-0.55101 0.0918,-1.02005 0.2757,-1.4065 0.18363,-0.3868 0.43232,-0.70504 0.74592,-0.95478 0.30244,-0.23985 0.65853,-0.41672 1.06746,-0.53148 0.40903,-0.11465 0.83507,-0.17203 1.27811,-0.17203 0.33543,0 0.67037,0.0383 1.00548,0.11033 0.33531,0.0734 0.67203,0.19096 1.01058,0.3517 v 1.54005 h -0.24318 c -0.0757,-0.0684 -0.1686,-0.1438 -0.27827,-0.2259 -0.10973,-0.0819 -0.22992,-0.15733 -0.35941,-0.22601 -0.13709,-0.0712 -0.29175,-0.13265 -0.4649,-0.18232 -0.1728,-0.0494 -0.36573,-0.0742 -0.5784,-0.0742 -0.48298,5e-5 -0.85652,0.15989 -1.12133,0.48011 -0.26473,0.32025 -0.39685,0.75051 -0.39685,1.29105 0,0.57838 0.14122,1.00953 0.4243,1.29363 0.28305,0.28443 0.65848,0.42607 1.12684,0.42607 0.23772,3e-5 0.4469,-0.0255 0.62696,-0.0769 0.18019,-0.0511 0.33533,-0.11275 0.46488,-0.18484 0.12617,-0.0717 0.23413,-0.1465 0.32454,-0.22348 0.0896,-0.0769 0.16755,-0.14641 0.23242,-0.20778 h 0.2432 v 1.54004 c -0.10793,0.0438 -0.23328,0.0955 -0.37529,0.1539 -0.14217,0.058 -0.28738,0.10627 -0.43506,0.14389 -0.18373,0.0476 -0.35565,0.0846 -0.51635,0.11018 -0.16028,0.0257 -0.37182,0.0384 -0.6348,0.0384 z m -5.77311,0 c -1.14598,0 -2.02401,-0.26023 -2.63468,-0.78034 -0.61062,-0.52 -0.91588,-1.26103 -0.91588,-2.22279 0,-0.94118 0.28472,-1.69238 0.85383,-2.25369 0.56934,-0.56137 1.36552,-0.84206 2.38866,-0.84206 0.92978,0 1.62856,0.23771 2.09692,0.7137 0.4683,0.47569 0.70248,1.15662 0.70248,2.04309 v 0.64668 h -4.1459 c 0.0171,0.26706 0.0772,0.49018 0.17844,0.67004 0.1004,0.17974 0.23425,0.32223 0.40004,0.42875 0.16208,0.1059 0.35145,0.1823 0.56753,0.22853 0.21614,0.0456 0.45214,0.0692 0.70818,0.0692 0.21989,0 0.43613,-0.0214 0.64869,-0.0692 0.21257,-0.0459 0.407,-0.10674 0.58363,-0.18235 0.15512,-0.0648 0.29817,-0.13522 0.42949,-0.21035 0.13133,-0.0751 0.2385,-0.14216 0.32149,-0.2001 h 0.20002 v 1.48352 c -0.15468,0.0579 -0.29632,0.11196 -0.4242,0.16159 -0.12791,0.0494 -0.30379,0.0999 -0.52704,0.15165 -0.20521,0.0511 -0.41702,0.0913 -0.63497,0.12066 -0.21769,0.0299 -0.48363,0.0433 -0.79721,0.0433 z m 0.62692,-3.77818 c -0.008,-0.37992 -0.10376,-0.66919 -0.27818,-0.86773 -0.175,-0.19834 -0.4424,-0.29759 -0.80285,-0.29759 -0.36737,5e-5 -0.655,0.10447 -0.86209,0.31325 -0.20692,0.20871 -0.32153,0.49261 -0.34316,0.85203 z m -3.79901,-0.44162 h -0.1567 c -0.0722,-0.0257 -0.1768,-0.0427 -0.3133,-0.0537 -0.13702,-0.0126 -0.28824,-0.0171 -0.45413,-0.0171 -0.19831,0 -0.40631,0.0257 -0.6241,0.0819 -0.21826,0.0544 -0.42949,0.11973 -0.63491,0.19537 v 3.86137 h -1.8915 v -5.76609 h 1.8915 v 0.82645 c 0.0862,-0.0748 0.20617,-0.17025 0.35945,-0.28468 0.1529,-0.11463 0.2925,-0.2061 0.41867,-0.2748 0.13709,-0.0786 0.29646,-0.14651 0.47816,-0.20267 0.18186,-0.0562 0.35383,-0.0846 0.51617,-0.0846 0.061,5e-5 0.12967,0.002 0.20521,0.005 0.0757,0.004 0.14439,0.008 0.20528,0.0171 z m -4.86059,4.06611 h -1.89147 V 423.317 h 1.89147 z m 0.0537,-6.58494 h -1.99966 v -1.40157 h 1.99975 z m -2.36401,2.77208 c 0,0.71185 -0.16375,1.3492 -0.49192,1.91227 -0.32795,0.56308 -0.7421,0.99504 -1.24315,1.2962 -0.41765,0.25665 -0.87289,0.42185 -1.36444,0.4954 -0.49198,0.0729 -1.01518,0.11059 -1.56988,0.11059 h -2.5185 v -7.64307 h 2.49694 c 0.56552,0 1.09534,0.0341 1.589,0.10276 0.49363,0.0684 0.95644,0.23467 1.38908,0.49794 0.52984,0.32179 0.94748,0.75556 1.25384,1.30127 0.30635,0.54577 0.45936,1.18836 0.45936,1.92763 z m -2.07535,-0.0172 c 0,-0.50309 -0.0909,-0.93356 -0.2731,-1.29091 -0.18195,-0.3577 -0.46212,-0.63736 -0.8403,-0.83926 -0.27394,-0.14392 -0.56126,-0.22258 -0.86207,-0.23634 -0.30075,-0.0126 -0.66023,-0.0214 -1.07828,-0.0214 h -0.0384 v 4.78431 h 0.0384 c 0.45375,0 0.83679,-0.008 1.14829,-0.0214 0.31162,-0.0171 0.60785,-0.10721 0.88922,-0.27486 0.33141,-0.19834 0.58357,-0.47214 0.75674,-0.82118 0.17287,-0.34904 0.25923,-0.77507 0.25923,-1.27814 z m -10.59893,3.9863 c -1.14566,0 -2.02405,-0.26007 -2.63466,-0.7803 -0.61066,-0.51999 -0.91595,-1.26106 -0.91595,-2.22283 0,-0.94117 0.28474,-1.69232 0.8539,-2.25369 0.56929,-0.56137 1.36552,-0.84204 2.38899,-0.84204 0.92937,0 1.62845,0.23774 2.09688,0.71368 0.46831,0.4757 0.70247,1.15677 0.70247,2.04312 v 0.64666 h -4.14585 c 0.0171,0.2671 0.0774,0.49032 0.17842,0.67002 0.10028,0.17974 0.23419,0.32228 0.40009,0.42841 0.16199,0.10592 0.35145,0.18231 0.56754,0.22859 0.21599,0.0456 0.45207,0.0689 0.70812,0.0689 0.21992,0 0.43609,-0.0214 0.64842,-0.0689 0.21258,-0.0459 0.40698,-0.10679 0.58357,-0.18241 0.1552,-0.0651 0.29805,-0.13517 0.42953,-0.21033 0.13136,-0.0752 0.23891,-0.14217 0.32138,-0.20012 h 0.20009 v 1.48353 c -0.15512,0.058 -0.29643,0.11195 -0.42434,0.16159 -0.12799,0.0494 -0.30371,0.0999 -0.52694,0.15171 -0.20524,0.0511 -0.41697,0.0913 -0.63492,0.1206 -0.21818,0.0298 -0.48367,0.0432 -0.79722,0.0432 z m 0.62685,-3.77819 c -0.008,-0.37985 -0.10372,-0.66919 -0.27818,-0.86769 -0.17464,-0.19829 -0.44244,-0.29763 -0.80259,-0.29763 -0.36732,5e-5 -0.65491,0.10447 -0.86209,0.31331 -0.20743,0.20867 -0.32143,0.49257 -0.34306,0.85198 z m -4.52053,3.62558 h -1.89149 v -7.98651 h 1.89149 z m -2.23917,-2.9622 c -3e-5,0.92078 -0.24583,1.66323 -0.73751,2.22802 -0.49203,0.56479 -1.09809,0.84684 -1.81877,0.84684 -0.3028,0 -0.56583,-0.0341 -0.78886,-0.0973 -0.22335,-0.0648 -0.46108,-0.16587 -0.71328,-0.30281 v 2.40244 h -1.89151 v -7.87888 h 1.89151 v 0.60049 c 0.2774,-0.22601 0.56027,-0.4087 0.84859,-0.54915 0.28815,-0.14058 0.62131,-0.21052 0.99986,-0.21052 0.70248,0 1.24654,0.26538 1.63236,0.7955 0.38544,0.53051 0.57829,1.25248 0.57829,2.16631 z m -1.93485,0.0341 c 0,-0.56136 -0.0908,-0.96856 -0.2731,-1.22186 -0.18186,-0.25317 -0.46553,-0.37989 -0.85133,-0.37989 -0.16944,0 -0.33789,0.0257 -0.50555,0.0769 -0.16758,0.0511 -0.3323,0.12844 -0.49432,0.23121 v 2.90029 c 0.10031,0.0429 0.21169,0.07 0.33224,0.087 0.12052,0.0172 0.26398,0.0257 0.42956,0.0257 0.46108,0 0.80348,-0.14311 1.02689,-0.42884 0.22334,-0.28561 0.33528,-0.71609 0.33528,-1.29101 z m -6.65772,2.92752 v -2.87994 c 0,-0.28396 -0.005,-0.52351 -0.0172,-0.71892 -0.008,-0.19477 -0.0425,-0.35418 -0.0968,-0.47726 -0.0537,-0.12323 -0.13771,-0.21312 -0.25151,-0.26966 -0.11352,-0.0561 -0.27303,-0.0846 -0.47838,-0.0846 -0.14434,0 -0.28643,0.0299 -0.42674,0.0896 -0.14044,0.0596 -0.29376,0.14489 -0.45937,0.25405 v 4.087 h -1.90252 v -2.87996 c 0,-0.28089 -0.005,-0.51936 -0.017,-0.71608 -0.0126,-0.19658 -0.0454,-0.35702 -0.0994,-0.47976 -0.0536,-0.12324 -0.1377,-0.21312 -0.25146,-0.2697 -0.11354,-0.0562 -0.27086,-0.0846 -0.47281,-0.0846 -0.15469,0 -0.30635,0.0341 -0.45385,0.10276 -0.14786,0.0684 -0.29203,0.14917 -0.43226,0.24108 v 4.08699 h -1.89151 v -5.76599 h 1.89155 v 0.63652 c 0.30977,-0.24965 0.60162,-0.44473 0.87574,-0.58518 0.27384,-0.14057 0.58176,-0.21052 0.9242,-0.21052 0.37115,0 0.69737,0.0837 0.97839,0.25147 0.2813,0.16769 0.49534,0.41734 0.64318,0.74937 0.36391,-0.32177 0.70709,-0.56895 1.02967,-0.74176 0.32241,-0.17278 0.64955,-0.25922 0.98086,-0.25922 0.28073,0 0.53319,0.0427 0.75661,0.12826 0.22346,0.0854 0.41251,0.21392 0.56757,0.38509 0.16948,0.18503 0.29649,0.40488 0.38093,0.65951 0.0844,0.25495 0.127,0.58773 0.127,0.99849 v 3.75394 z m -8.03853,0 h -1.89148 v -5.76605 h 1.89148 z m 0.0538,-6.58482 h -1.99962 v -1.40166 h 1.99976 z m -5.69332,6.72351 c -0.61614,0 -1.15739,-0.0561 -1.62396,-0.16926 -0.46664,-0.11289 -0.89994,-0.25323 -1.30004,-0.42092 v -1.81726 h 0.18366 c 0.40348,0.325 0.84869,0.57496 1.33509,0.74938 0.4864,0.17459 0.95856,0.2619 1.41584,0.2619 0.11532,0 0.26738,-0.0126 0.45657,-0.0341 0.18921,-0.0257 0.34132,-0.0614 0.45647,-0.11275 0.14059,-0.0579 0.25937,-0.13966 0.35667,-0.24379 0.0968,-0.10447 0.1461,-0.24189 0.1461,-0.41322 0,-0.19182 -0.0789,-0.34722 -0.23759,-0.46726 -0.1585,-0.11968 -0.34804,-0.20697 -0.56759,-0.2619 -0.27394,-0.0681 -0.5665,-0.13343 -0.87814,-0.19491 -0.31153,-0.0614 -0.60258,-0.13693 -0.8729,-0.22595 -0.62338,-0.20877 -1.06998,-0.48955 -1.34016,-0.84206 -0.27012,-0.35242 -0.40528,-0.79413 -0.40528,-1.32454 0,-0.71541 0.319,-1.29448 0.95647,-1.73779 0.63771,-0.44315 1.4339,-0.66474 2.38872,-0.66474 0.47907,3e-5 0.95579,0.0459 1.42944,0.1387 0.47383,0.0921 0.89819,0.21736 1.27285,0.37479 v 1.74537 h -0.17859 c -0.29895,-0.24279 -0.66373,-0.44817 -1.09452,-0.61613 -0.43021,-0.16775 -0.87301,-0.25157 -1.32674,-0.25157 -0.1767,0 -0.33529,0.0126 -0.47572,0.0342 -0.14028,0.0256 -0.2881,0.0696 -0.44292,0.13878 -0.1262,0.0544 -0.23508,0.13599 -0.32717,0.24359 -0.0918,0.10763 -0.13777,0.22859 -0.13777,0.3623 0,0.19477 0.073,0.35003 0.21907,0.4645 0.14612,0.11454 0.4278,0.21821 0.84584,0.31071 0.27011,0.0579 0.53046,0.11449 0.78099,0.16926 0.25061,0.0544 0.51793,0.13011 0.80238,0.22605 0.55864,0.19189 0.97388,0.44935 1.24594,0.77267 0.27212,0.32355 0.40799,0.75041 0.40799,1.28092 0,0.7597 -0.31413,1.37066 -0.94297,1.83243 -0.62871,0.4621 -1.47839,0.69319 -2.54832,0.69319 z"
       style="fill:#4c6786;fill-opacity:1;stroke-width:0.346943"
       id="path886" />
    <path
       d="m 919.69974,416.23776 h -51.97119 v -73.93232 h 19.55329 v 59.84665 h 32.41442 z m -57.07126,-36.91414 c -7e-5,6.8867 -1.58571,13.05174 -4.75642,18.4986 -3.17201,5.44698 -7.18166,9.62404 -12.02484,12.53836 -4.04186,2.48304 -8.44451,4.08001 -13.20097,4.79116 -4.75658,0.71192 -9.82176,1.06753 -15.1889,1.06753 h -24.36196 v -73.93232 h 24.15379 c 5.47125,9e-5 10.59546,0.33101 15.36929,0.99336 4.77389,0.66231 9.25286,2.26796 13.43686,4.81545 5.12425,3.11208 9.16607,7.31002 12.12901,12.59041 2.9625,5.28029 4.44414,11.49745 4.44414,18.64782 z m -20.07721,-0.14917 c -4e-5,-4.86748 -0.88012,-9.03076 -2.64019,-12.48974 -1.76033,-3.45964 -4.46848,-6.16508 -8.12865,-8.11832 -2.64894,-1.39052 -5.42968,-2.15169 -8.34044,-2.28421 -2.91046,-0.13221 -6.38714,-0.19879 -10.42895,-0.19879 h -0.366 v 46.28146 h 0.366 c 4.39229,5e-5 8.09413,-0.0742 11.10895,-0.22345 3.01487,-0.14912 5.88058,-1.0345 8.6006,-2.65686 3.20678,-1.91995 5.64815,-4.56909 7.32032,-7.94484 1.67302,-3.37673 2.50939,-7.49733 2.50974,-12.36484 z m -86.76892,38.37129 c -5.96039,0 -11.19575,-0.54606 -15.70939,-1.63857 -4.51359,-1.09252 -8.70465,-2.45014 -12.57296,-4.07306 v -17.57937 h 1.77765 c 3.90313,3.14504 8.20856,5.56142 12.91311,7.251 4.70445,1.68855 9.27013,2.53267 13.69705,2.53267 1.11532,0 2.58779,-0.11576 4.41644,-0.34728 1.82983,-0.23161 3.3025,-0.5961 4.41657,-1.09253 1.35927,-0.56274 2.50939,-1.34925 3.45062,-2.35877 0.94083,-1.00968 1.41173,-2.34225 1.41173,-3.99671 -5e-5,-1.8541 -0.76675,-3.3604 -2.30059,-4.52067 -1.53383,-1.15871 -3.36352,-2.00282 -5.4885,-2.5326 -2.64895,-0.662 -5.48171,-1.29124 -8.49653,-1.88694 -3.01486,-0.59609 -5.82855,-1.32425 -8.44439,-2.1851 -6.02983,-2.01949 -10.35272,-4.73568 -12.96515,-8.14262 -2.61413,-3.40998 -3.92033,-7.68117 -3.92033,-12.81233 0,-6.91799 3.08466,-12.52092 9.25281,-16.80914 6.16855,-4.28807 13.87061,-6.43216 23.10944,-6.43216 4.63505,8e-5 9.24596,0.44683 13.82899,1.34085 4.58303,0.89405 8.68728,2.10246 12.31281,3.62556 v 16.88536 h -1.72539 c -2.89311,-2.35042 -6.4218,-4.33667 -10.58845,-5.9603 -4.16674,-1.62235 -8.4445,-2.43339 -12.83677,-2.43339 -1.70797,3e-5 -3.24132,0.11573 -4.60039,0.34719 -1.35927,0.232 -2.78822,0.67867 -4.28806,1.34088 -1.21986,0.52978 -2.27424,1.31604 -3.16309,2.35892 -0.8888,1.04283 -1.33325,2.20998 -1.33325,3.50054 -5e-5,1.887 0.70572,3.38514 2.11737,4.4929 1.41163,1.10905 4.13896,2.11038 8.18082,3.0044 2.61413,0.56274 5.13115,1.10925 7.55623,1.63858 2.4223,0.52983 5.00973,1.25801 7.76445,2.18509 5.4018,1.85398 9.41936,4.34357 12.05267,7.47291 2.63149,3.12875 3.94806,7.25799 3.94806,12.38915 -3e-5,7.3481 -3.04122,13.25994 -9.1244,17.72855 -6.08185,4.46846 -14.30078,6.70285 -24.64986,6.70285 z"
       style="fill:#4c6786;fill-opacity:1;stroke-width:0.346943"
       id="path888" />
    <path
       d="m 787.72488,450.30694 c -0.48195,0 -0.87197,0.33835 -0.87197,0.75593 0,0.41744 0.39036,0.756 0.87197,0.756 0.48113,0 0.87184,-0.33884 0.87184,-0.756 0,-0.4173 -0.39071,-0.75593 -0.87184,-0.75593 z m 37.36504,6.77909 c -0.75248,0 -1.36236,0.52873 -1.36236,1.18209 0,0.65251 0.60988,1.18132 1.36236,1.18132 0.75258,0 1.36244,-0.52881 1.36244,-1.18132 0,-0.65336 -0.60986,-1.18209 -1.36244,-1.18209 z m -19.39028,-2.56005 c -0.60234,0 -1.09046,0.42364 -1.09046,0.94576 0,0.52254 0.48812,0.94542 1.09046,0.94542 0.60225,0 1.08968,-0.42288 1.08968,-0.94542 0,-0.52212 -0.48777,-0.94576 -1.08968,-0.94576 z m 40.62637,3.32022 c -0.94089,0 -1.70319,0.66093 -1.70319,1.47698 0,0.81594 0.76264,1.47691 1.70319,1.47691 0.94014,0 1.70302,-0.66097 1.70302,-1.47691 0,-0.81605 -0.76288,-1.47698 -1.70302,-1.47698 z m 21.92986,-1.14 c -1.17511,0 -2.12816,0.82642 -2.12816,1.84608 0,1.02 0.95305,1.84674 2.12816,1.84674 1.17574,0 2.12944,-0.82674 2.12944,-1.84674 0,-1.01932 -0.9537,-1.84608 -2.12944,-1.84608 z m 21.97849,-3.75388 c -1.47003,0 -2.66099,1.03384 -2.66099,2.30777 0,1.27472 1.19096,2.30822 2.66099,2.30822 1.46992,0 2.66171,-1.0335 2.66171,-2.30822 0,-1.27427 -1.19145,-2.30777 -2.66171,-2.30777 z m 21.99237,-6.86934 c -1.83713,0 -3.32612,1.29124 -3.32612,2.8844 0,1.5932 1.48899,2.88513 3.32612,2.88513 1.83702,0 3.32679,-1.29193 3.32679,-2.88513 0,-1.59316 -1.48977,-2.8844 -3.32679,-2.8844 z m 21.05908,-9.14176 c -2.04103,0 -3.69494,1.43525 -3.69494,3.20568 0,1.77041 1.6546,3.20532 3.69494,3.20532 2.04095,0 3.6949,-1.43491 3.6949,-3.20532 0,-1.77043 -1.65464,-3.20568 -3.6949,-3.20568 z m 19.19597,-13.14206 c -2.26787,0 -4.10767,1.59415 -4.10767,3.55962 0,1.96674 1.83871,3.56298 4.10767,3.56298 2.26866,0 4.10778,-1.59486 4.10778,-3.56298 0,-1.96685 -1.83809,-3.55962 -4.10778,-3.55962 z m 15.83076,-18.49168 c -2.94856,0 -5.33937,2.07331 -5.33937,4.6316 0,2.55691 2.39013,4.63159 5.33937,4.63159 2.94933,0 5.33936,-2.07297 5.33936,-4.63159 0,-2.55658 -2.39003,-4.6316 -5.33936,-4.6316 z m 6.79995,-19.18214 c -2.26787,0 -4.10768,1.59417 -4.10768,3.56304 0,1.96679 1.83804,3.55956 4.10768,3.55956 2.26968,0 4.10778,-1.59414 4.10778,-3.55956 0,-1.96715 -1.8381,-3.56304 -4.10778,-3.56304 z m -2.29251,-11.97282 c 1.62048,0 2.93397,-1.13838 2.93397,-2.54371 0,-1.4048 -1.31315,-2.54386 -2.93397,-2.54386 -1.61947,0 -2.93267,1.13906 -2.93267,2.54386 0,1.40533 1.3132,2.54371 2.93267,2.54371 z m -7.16427,-13.83593 c 1.1577,0 2.09483,-0.81384 2.09483,-1.81727 0,-1.00333 -0.93751,-1.81657 -2.09483,-1.81657 -1.15701,0 -2.09554,0.81324 -2.09554,1.81657 0,1.00343 0.93853,1.81727 2.09554,1.81727 z m -7.87549,-11.60158 c -0.77126,0 -1.39604,0.54261 -1.39604,1.21194 0,0.66851 0.62512,1.21116 1.39604,1.21116 0.77154,0 1.3975,-0.54265 1.3975,-1.21116 0,-0.66933 -0.62562,-1.21194 -1.3975,-1.21194 z m -8.38196,-4.75294 c 0.51448,0 0.93149,-0.36162 0.93149,-0.80773 0,-0.44578 -0.41701,-0.80773 -0.93149,-0.80773 -0.51451,0 -0.93081,0.36161 -0.93081,0.80773 0,0.44577 0.4163,0.80773 0.93081,0.80773"
       style="fill:#4c6786;fill-opacity:1;fill-rule:evenodd;stroke-width:0.346943"
       id="path890" />
  </g>
</svg>
