<?xml version="1.0" encoding="UTF-8" standalone="no"?>
<svg viewBox="0 0 0.79999981 0.3999999" width="15.999996" height="7.9999981" version="1.1" id="svg928" xmlns="http://www.w3.org/2000/svg" xmlns:svg="http://www.w3.org/2000/svg">
   <defs id="defs932" />
   <clipPath id="s">
      <path d="M 0,0 V 30 H 60 V 0 Z" id="path910" />
   </clipPath>
   <clipPath id="t">
      <path d="m 30,15 h 30 v 15 z m 0,0 V 30 H 0 Z m 0,0 H 0 V 0 Z m 0,0 V 0 h 30 z" id="path913" />
   </clipPath>
   <g clip-path="url(#s)" id="g926" transform="scale(0.01333333)">
      <path d="M 0,0 V 30 H 60 V 0 Z" fill="#012169" id="path916" style="display:inline;fill:#4f65ac;fill-opacity:1" />
      <path d="M 0,0 60,30 M 60,0 0,30" stroke="#ffffff" stroke-width="6" id="path918" style="display:inline;opacity:1;stroke:#f5f5f5;stroke-opacity:1" />
      <path d="M 0,0 60,30 M 60,0 0,30" clip-path="url(#t)" stroke="#c8102e" stroke-width="4" id="path920" style="display:inline;stroke:#f04957;stroke-opacity:1" />
      <path d="M 30,0 V 6.643085 30" stroke="#ffffff" stroke-width="10" id="path922" style="display:inline;opacity:1;stroke:#121212;stroke-width:9.97795;stroke-miterlimit:4;stroke-dasharray:none;stroke-opacity:1" />
      <path d="M 30,0 V 8.3888477 30 M 0,15 h 60" stroke="#ffffff" stroke-width="10" id="path2335" style="display:inline;opacity:1;stroke:#f5f5f5;stroke-opacity:1" />
      <path d="M 30,0 V 30 M 0,15 h 60" stroke="#c8102e" stroke-width="6" id="path924" style="display:inline;stroke:#f04957;stroke-opacity:1" />
   </g>
</svg>